<svg width="55" height="55" viewBox="0 0 55 55" fill="none" xmlns="http://www.w3.org/2000/svg">
<path d="M27.5 51.5625C21.1182 51.5625 14.9978 49.0273 10.4852 44.5148C5.97265 40.0022 3.4375 33.8818 3.4375 27.5C3.4375 21.1182 5.97265 14.9978 10.4852 10.4852C14.9978 5.97265 21.1182 3.4375 27.5 3.4375C33.8818 3.4375 40.0022 5.97265 44.5148 10.4852C49.0273 14.9978 51.5625 21.1182 51.5625 27.5C51.5625 33.8818 49.0273 40.0022 44.5148 44.5148C40.0022 49.0273 33.8818 51.5625 27.5 51.5625ZM27.5 55C34.7935 55 41.7882 52.1027 46.9454 46.9454C52.1027 41.7882 55 34.7935 55 27.5C55 20.2065 52.1027 13.2118 46.9454 8.05456C41.7882 2.89731 34.7935 0 27.5 0C20.2065 0 13.2118 2.89731 8.05456 8.05456C2.89731 13.2118 0 20.2065 0 27.5C0 34.7935 2.89731 41.7882 8.05456 46.9454C13.2118 52.1027 20.2065 55 27.5 55V55Z" fill="white"/>
<path d="M17.1875 21.4844C17.1875 20.3448 17.6402 19.2518 18.446 18.446C19.2518 17.6402 20.3448 17.1875 21.4844 17.1875C22.624 17.1875 23.7169 17.6402 24.5227 18.446C25.3285 19.2518 25.7812 20.3448 25.7812 21.4844V33.5156C25.7812 34.6552 25.3285 35.7482 24.5227 36.554C23.7169 37.3598 22.624 37.8125 21.4844 37.8125C20.3448 37.8125 19.2518 37.3598 18.446 36.554C17.6402 35.7482 17.1875 34.6552 17.1875 33.5156V21.4844ZM29.2188 21.4844C29.2188 20.3448 29.6715 19.2518 30.4773 18.446C31.2831 17.6402 32.376 17.1875 33.5156 17.1875C34.6552 17.1875 35.7482 17.6402 36.554 18.446C37.3598 19.2518 37.8125 20.3448 37.8125 21.4844V33.5156C37.8125 34.6552 37.3598 35.7482 36.554 36.554C35.7482 37.3598 34.6552 37.8125 33.5156 37.8125C32.376 37.8125 31.2831 37.3598 30.4773 36.554C29.6715 35.7482 29.2188 34.6552 29.2188 33.5156V21.4844Z" fill="white"/>
</svg>
