<svg width="55" height="56" viewBox="0 0 55 56" fill="none" xmlns="http://www.w3.org/2000/svg">
<path d="M27.5 52.0625C21.1182 52.0625 14.9978 49.5273 10.4852 45.0148C5.97265 40.5022 3.4375 34.3818 3.4375 28C3.4375 21.6182 5.97265 15.4978 10.4852 10.9852C14.9978 6.47265 21.1182 3.9375 27.5 3.9375C33.8818 3.9375 40.0022 6.47265 44.5148 10.9852C49.0273 15.4978 51.5625 21.6182 51.5625 28C51.5625 34.3818 49.0273 40.5022 44.5148 45.0148C40.0022 49.5273 33.8818 52.0625 27.5 52.0625ZM27.5 55.5C34.7935 55.5 41.7882 52.6027 46.9454 47.4454C52.1027 42.2882 55 35.2935 55 28C55 20.7065 52.1027 13.7118 46.9454 8.55456C41.7882 3.39731 34.7935 0.5 27.5 0.5C20.2065 0.5 13.2118 3.39731 8.05456 8.55456C2.89731 13.7118 0 20.7065 0 28C0 35.2935 2.89731 42.2882 8.05456 47.4454C13.2118 52.6027 20.2065 55.5 27.5 55.5V55.5Z" fill="white"/>
<path d="M21.5566 17.8766C21.8377 17.7318 22.1533 17.6674 22.4687 17.6905C22.7841 17.7135 23.087 17.8231 23.3441 18.0072L35.3753 26.601C35.5981 26.7599 35.7797 26.9698 35.905 27.2132C36.0303 27.4565 36.0957 27.7263 36.0957 28C36.0957 28.2737 36.0303 28.5435 35.905 28.7868C35.7797 29.0302 35.5981 29.2401 35.3753 29.3991L23.3441 37.9928C23.0871 38.1768 22.7843 38.2863 22.4691 38.3093C22.1539 38.3324 21.8384 38.2681 21.5574 38.1235C21.2763 37.9789 21.0406 37.7596 20.8761 37.4897C20.7116 37.2198 20.6247 36.9098 20.625 36.5938V19.4063C20.6247 19.0903 20.7114 18.7804 20.8758 18.5105C21.0401 18.2406 21.2757 18.0213 21.5566 17.8766V17.8766Z" fill="white"/>
</svg>
