<svg width="24" height="24" viewBox="0 0 24 24" fill="none" xmlns="http://www.w3.org/2000/svg">
<g clip-path="url(#clip0_1_27)">
<path d="M20.2499 22.5001C19.6532 22.5001 19.0809 22.263 18.659 21.8411C18.237 21.4191 17.9999 20.8468 17.9999 20.2501C17.9999 19.6533 18.237 19.081 18.659 18.6591C19.0809 18.2371 19.6532 18.0001 20.2499 18.0001C20.8467 18.0001 21.419 18.2371 21.8409 18.6591C22.2629 19.081 22.4999 19.6533 22.4999 20.2501C22.4999 20.8468 22.2629 21.4191 21.8409 21.8411C21.419 22.263 20.8467 22.5001 20.2499 22.5001ZM16.4999 20.2501C16.4998 21.1299 16.8091 21.9818 17.3737 22.6566C17.9382 23.3315 18.7221 23.7864 19.5881 23.9417C20.4541 24.0969 21.3472 23.9428 22.111 23.5061C22.8749 23.0694 23.4609 22.3781 23.7665 21.553C24.0721 20.728 24.0778 19.8217 23.7827 18.9928C23.4876 18.1639 22.9105 17.4652 22.1523 17.0188C21.394 16.5725 20.503 16.407 19.635 16.5513C18.7671 16.6956 17.9775 17.1404 17.4044 17.8081L7.32745 13.1281C7.55911 12.3939 7.55911 11.6062 7.32745 10.8721L17.4044 6.19206C18.0102 6.89657 18.8559 7.3511 19.7777 7.46759C20.6995 7.58407 21.6318 7.3542 22.3937 6.82252C23.1557 6.29085 23.6932 5.49524 23.9019 4.58988C24.1107 3.68452 23.976 2.73388 23.5238 1.9222C23.0717 1.11052 22.3343 0.495609 21.4546 0.196627C20.5749 -0.102355 19.6155 -0.0641111 18.7624 0.303946C17.9093 0.672002 17.2231 1.34366 16.837 2.18875C16.4509 3.03385 16.3923 3.99219 16.6724 4.87806L6.59545 9.55806C6.0966 8.97671 5.43168 8.56207 4.69012 8.36993C3.94856 8.1778 3.16595 8.21738 2.44756 8.48335C1.72917 8.74932 1.10946 9.22892 0.671811 9.85763C0.234158 10.4863 -0.000448227 11.234 -0.000448227 12.0001C-0.000448227 12.7661 0.234158 13.5138 0.671811 14.1425C1.10946 14.7712 1.72917 15.2508 2.44756 15.5168C3.16595 15.7828 3.94856 15.8223 4.69012 15.6302C5.43168 15.4381 6.0966 15.0234 6.59545 14.4421L16.6724 19.1221C16.5577 19.4871 16.4996 19.8675 16.4999 20.2501V20.2501ZM3.74995 14.2501C3.15321 14.2501 2.58092 14.013 2.15896 13.5911C1.737 13.1691 1.49995 12.5968 1.49995 12.0001C1.49995 11.4033 1.737 10.831 2.15896 10.4091C2.58092 9.98712 3.15321 9.75006 3.74995 9.75006C4.34669 9.75006 4.91898 9.98712 5.34094 10.4091C5.7629 10.831 5.99995 11.4033 5.99995 12.0001C5.99995 12.5968 5.7629 13.1691 5.34094 13.5911C4.91898 14.013 4.34669 14.2501 3.74995 14.2501ZM20.2499 6.00006C19.6532 6.00006 19.0809 5.76301 18.659 5.34105C18.237 4.9191 17.9999 4.3468 17.9999 3.75006C17.9999 3.15333 18.237 2.58103 18.659 2.15907C19.0809 1.73712 19.6532 1.50006 20.2499 1.50006C20.8467 1.50006 21.419 1.73712 21.8409 2.15907C22.2629 2.58103 22.4999 3.15333 22.4999 3.75006C22.4999 4.3468 22.2629 4.9191 21.8409 5.34105C21.419 5.76301 20.8467 6.00006 20.2499 6.00006Z" fill="white"/>
</g>
<defs>
<clipPath id="clip0_1_27">
<rect width="24" height="24" fill="white" transform="matrix(1 0 0 -1 0 24)"/>
</clipPath>
</defs>
</svg>
