<svg width="24" height="24" viewBox="0 0 24 24" fill="none" xmlns="http://www.w3.org/2000/svg">
<path fill-rule="evenodd" clip-rule="evenodd" d="M0 5.25C0 5.05109 0.0790176 4.86032 0.21967 4.71967C0.360322 4.57902 0.551088 4.5 0.75 4.5H1.5C4.803 4.5 7.2405 6.36 8.811 8.127C9.546 8.955 10.1085 9.78 10.5 10.425C10.89 9.78 11.454 8.955 12.189 8.127C13.7595 6.36 16.197 4.5 19.5 4.5V6C16.803 6 14.7405 7.515 13.311 9.123C12.538 9.9985 11.8742 10.9646 11.334 12C11.8737 13.0354 12.5371 14.0014 13.3095 14.877C14.742 16.485 16.806 18 19.5 18V19.5C16.197 19.5 13.7595 17.64 12.189 15.873C11.5583 15.1592 10.993 14.3901 10.5 13.575C10.11 14.22 9.546 15.045 8.811 15.873C7.2405 17.64 4.803 19.5 1.5 19.5H0.75C0.551088 19.5 0.360322 19.421 0.21967 19.2803C0.0790176 19.1397 0 18.9489 0 18.75C0 18.5511 0.0790176 18.3603 0.21967 18.2197C0.360322 18.079 0.551088 18 0.75 18H1.5C4.197 18 6.2595 16.485 7.689 14.877C8.46195 14.0015 9.1258 13.0354 9.666 12C9.12627 10.9646 8.46292 9.99858 7.6905 9.123C6.258 7.515 4.194 6 1.5 6H0.75C0.551088 6 0.360322 5.92098 0.21967 5.78033C0.0790176 5.63968 0 5.44891 0 5.25Z" fill="white"/>
<path d="M19.5 8.19901V2.30101C19.5 2.22975 19.5204 2.15998 19.5586 2.09986C19.5969 2.03974 19.6514 1.99176 19.716 1.96154C19.7805 1.93132 19.8523 1.92011 19.923 1.92923C19.9936 1.93834 20.0602 1.9674 20.115 2.01301L23.655 4.96201C23.835 5.11201 23.835 5.38801 23.655 5.53801L20.115 8.48701C20.0602 8.53261 19.9936 8.56167 19.923 8.57079C19.8523 8.5799 19.7805 8.56869 19.716 8.53847C19.6514 8.50825 19.5969 8.46028 19.5586 8.40016C19.5204 8.34004 19.5 8.27026 19.5 8.19901V8.19901ZM19.5 21.699V15.801C19.5 15.7298 19.5204 15.66 19.5586 15.5999C19.5969 15.5397 19.6514 15.4918 19.716 15.4615C19.7805 15.4313 19.8523 15.4201 19.923 15.4292C19.9936 15.4383 20.0602 15.4674 20.115 15.513L23.655 18.462C23.835 18.612 23.835 18.888 23.655 19.038L20.115 21.987C20.0602 22.0326 19.9936 22.0617 19.923 22.0708C19.8523 22.0799 19.7805 22.0687 19.716 22.0385C19.6514 22.0083 19.5969 21.9603 19.5586 21.9002C19.5204 21.84 19.5 21.7703 19.5 21.699V21.699Z" fill="white"/>
</svg>
