<svg width="40" height="40" viewBox="0 0 40 40" fill="none" xmlns="http://www.w3.org/2000/svg">
<path d="M31.25 10C31.25 9.66848 31.1183 9.35054 30.8839 9.11612C30.6495 8.8817 30.3315 8.75 30 8.75C29.6685 8.75 29.3505 8.8817 29.1161 9.11612C28.8817 9.35054 28.75 9.66848 28.75 10V18.12L13.0825 9.03C11.7825 8.275 10 9.1375 10 10.77V29.23C10 30.8625 11.7825 31.725 13.0825 30.97L28.75 21.88V30C28.75 30.3315 28.8817 30.6495 29.1161 30.8839C29.3505 31.1183 29.6685 31.25 30 31.25C30.3315 31.25 30.6495 31.1183 30.8839 30.8839C31.1183 30.6495 31.25 30.3315 31.25 30V10ZM12.5 11.5825L27.01 20L12.5 28.4175V11.5825Z" fill="white"/>
</svg>
