<svg width="40" height="40" viewBox="0 0 40 40" fill="none" xmlns="http://www.w3.org/2000/svg">
<path d="M8.75 10C8.75 9.66848 8.8817 9.35054 9.11612 9.11612C9.35054 8.8817 9.66848 8.75 10 8.75C10.3315 8.75 10.6495 8.8817 10.8839 9.11612C11.1183 9.35054 11.25 9.66848 11.25 10V18.12L26.9175 9.03C28.2175 8.275 30 9.1375 30 10.77V29.23C30 30.8625 28.2175 31.725 26.9175 30.97L11.25 21.88V30C11.25 30.3315 11.1183 30.6495 10.8839 30.8839C10.6495 31.1183 10.3315 31.25 10 31.25C9.66848 31.25 9.35054 31.1183 9.11612 30.8839C8.8817 30.6495 8.75 30.3315 8.75 30V10ZM27.5 11.5825L12.99 20L27.5 28.4175V11.5825Z" fill="white"/>
</svg>
