<svg width="20" height="24" viewBox="0 0 20 24" fill="none" xmlns="http://www.w3.org/2000/svg">
<path d="M11.0099 23.9292C9.47647 24.2956 8.05371 23.1903 7.94945 21.7613C7.83396 20.1583 7.58053 18.685 7.26294 17.8072C7.06244 17.2576 6.49462 16.2622 5.59477 15.3065C4.70134 14.3539 3.53844 13.5065 2.17664 13.1539C1.09874 12.873 0 11.9844 0 10.6868V4.58004C0 3.29 1.09393 2.34498 2.3226 2.21979C4.03889 2.04728 4.83127 1.58622 5.63968 1.116L5.71668 1.07173C6.15297 0.818301 6.64379 0.538918 7.27256 0.332816C7.90935 0.122134 8.65361 0 9.62403 0H15.2381C16.741 0 17.8029 0.729753 18.3402 1.62439C18.6033 2.06255 18.7476 2.55108 18.7476 3.01825C18.7476 3.2503 18.7107 3.49457 18.6241 3.72663C18.9465 4.12662 19.2336 4.60752 19.4069 5.10064C19.5833 5.60444 19.6828 6.26397 19.4133 6.85632C19.524 7.05479 19.6058 7.26547 19.6683 7.47157C19.7918 7.88378 19.8496 8.3372 19.8496 8.77841C19.8496 9.21962 19.7918 9.67305 19.6683 10.0853C19.6122 10.2685 19.54 10.4578 19.447 10.6394C20.0789 11.5112 20.1174 12.4715 19.8223 13.2852C19.4919 14.189 18.7284 14.9645 17.8975 15.2271C16.5389 15.6592 15.0055 15.6485 13.8618 15.5492C13.6244 15.5289 13.3875 15.5034 13.1512 15.4729C13.708 17.7414 13.6739 20.1051 13.0518 22.3582C12.8304 23.1338 12.1696 23.6529 11.4285 23.83L11.0099 23.9292ZM15.2381 1.52668H9.62403C8.80599 1.52668 8.23978 1.63049 7.79547 1.77553C7.34474 1.92362 6.98384 2.12514 6.55076 2.37551L6.4866 2.41368C5.59638 2.9297 4.565 3.52816 2.49262 3.73884C1.95849 3.79227 1.60401 4.18158 1.60401 4.57852V10.6868C1.60401 11.0761 1.96651 11.5158 2.59849 11.6791C4.35488 12.1371 5.76961 13.2012 6.79136 14.2882C7.8099 15.3721 8.49802 16.5401 8.77712 17.3065C9.16689 18.3751 9.42995 20.0056 9.55025 21.6575C9.59035 22.2101 10.1277 22.5659 10.6201 22.4483L11.0404 22.3491C11.297 22.288 11.4542 22.1292 11.5023 21.9598C12.1577 19.5837 12.0769 17.078 11.2697 14.7447C11.2245 14.615 11.2166 14.4762 11.2469 14.3426C11.2772 14.2091 11.3446 14.0857 11.4421 13.9854C11.5396 13.8851 11.6636 13.8116 11.8012 13.7725C11.9387 13.7333 12.0848 13.7301 12.2241 13.763H12.2289L12.2514 13.7691L12.3444 13.789C12.8929 13.8998 13.4478 13.9799 14.0062 14.0287C15.0696 14.1203 16.3432 14.1111 17.3906 13.7798C17.6713 13.6897 18.1124 13.3203 18.3049 12.7859C18.4765 12.3157 18.4445 11.7631 17.8782 11.2272L17.312 10.6868L17.8782 10.1463C17.9472 10.0822 18.0467 9.93258 18.1253 9.66541C18.2023 9.41046 18.2456 9.10054 18.2456 8.77841C18.2456 8.45628 18.2023 8.14637 18.1253 7.89141C18.0451 7.62577 17.9472 7.47463 17.8782 7.41051L17.312 6.87006L17.8782 6.32962C17.9536 6.25786 18.0531 6.06092 17.8863 5.5846C17.7122 5.12472 17.4359 4.70603 17.0762 4.35715L16.51 3.8167L17.0762 3.27626C17.0859 3.26862 17.142 3.19992 17.142 3.01672C17.1346 2.79331 17.0679 2.57533 16.9479 2.38315C16.6817 1.94194 16.1411 1.52668 15.2381 1.52668Z" fill="white"/>
</svg>
