<svg width="20" height="24" viewBox="0 0 20 24" fill="none" xmlns="http://www.w3.org/2000/svg">
<path d="M11.0092 0.0703572C9.47588 -0.294526 8.05161 0.809284 7.94896 2.23828C7.83348 3.84286 7.58006 5.31613 7.26249 6.19246C7.062 6.74208 6.49422 7.73902 5.59443 8.69474C4.70105 9.64588 3.53822 10.4932 2.1765 10.8474C1.09868 11.1268 0 12.0153 0 13.313V19.4214C0 20.7115 1.09386 21.6565 2.32246 21.7802C4.03864 21.9542 4.83097 22.4137 5.63934 22.884L5.71633 22.9298C6.15259 23.1817 6.64338 23.4611 7.27211 23.6687C7.90887 23.8763 8.65308 24 9.62344 24H15.2371C16.74 24 17.8018 23.2718 18.3391 22.3756C18.5988 21.9527 18.7391 21.473 18.7465 20.9832C18.7465 20.7512 18.7096 20.5069 18.623 20.2748C18.9454 19.8733 19.2325 19.3924 19.4057 18.8993C19.5821 18.3954 19.6815 17.7359 19.4121 17.1451C19.5228 16.9466 19.6046 16.7344 19.6671 16.5298C19.7906 16.1176 19.8484 15.6626 19.8484 15.2214C19.8484 14.7817 19.7906 14.3283 19.6671 13.9146C19.611 13.7244 19.5369 13.5394 19.4458 13.3619C19.7266 12.9815 19.9073 12.5425 19.9726 12.0818C20.0379 11.6211 19.986 11.1522 19.8211 10.7146C19.4907 9.81076 18.7272 9.0352 17.8964 8.7726C16.5379 8.34207 15.0046 8.35123 13.861 8.45047C13.6235 8.4708 13.3866 8.49625 13.1504 8.5268C13.7068 6.2587 13.6727 3.89555 13.051 1.64287C12.9428 1.28194 12.7353 0.955063 12.45 0.696048C12.1646 0.437034 11.8117 0.255283 11.4278 0.169593L11.0092 0.0703572ZM15.2371 22.4748H9.62344C8.80545 22.4748 8.23927 22.3695 7.79499 22.2244C7.34429 22.0763 6.98341 21.8763 6.55036 21.6244L6.4862 21.5878C5.59603 21.0702 4.56472 20.4718 2.49247 20.2626C1.95837 20.2077 1.60391 19.8199 1.60391 19.4229V13.313C1.60391 12.9253 1.96639 12.484 2.59833 12.3207C4.35461 11.8627 5.76925 10.8001 6.79094 9.71305C7.80942 8.62909 8.4975 7.46116 8.77658 6.69322C9.16633 5.62453 9.42937 3.994 9.54966 2.3421C9.58976 1.78943 10.1271 1.43524 10.6195 1.55127L11.0397 1.65203C11.2963 1.7131 11.4535 1.87035 11.5016 2.04134C12.1566 4.41693 12.0759 6.92215 11.2691 9.25504C11.2234 9.38479 11.2152 9.52384 11.2453 9.65764C11.2755 9.79143 11.3429 9.91505 11.4404 10.0156C11.538 10.1161 11.6621 10.1898 11.7999 10.2289C11.9376 10.2681 12.0839 10.2713 12.2234 10.2382L12.2282 10.2367L12.2506 10.2321L12.3437 10.2108C12.8921 10.0999 13.447 10.0199 14.0053 9.97107C15.0687 9.87947 16.3422 9.88863 17.3896 10.2214C17.6702 10.31 18.1113 10.6795 18.3038 11.2138C18.4754 11.684 18.4433 12.2367 17.8771 12.7741L17.311 13.313L17.8771 13.8535C17.9461 13.9191 18.0456 14.0688 18.1242 14.3344C18.2011 14.5894 18.2444 14.8993 18.2444 15.2214C18.2444 15.5451 18.2011 15.8535 18.1242 16.11C18.044 16.3756 17.9461 16.5252 17.8771 16.5909L17.311 17.1298L17.8771 17.6703C17.9525 17.742 18.052 17.9405 17.8852 18.4153C17.7114 18.8757 17.4351 19.295 17.0752 19.6443L16.509 20.1832L17.0752 20.7237C17.0848 20.7313 17.141 20.8 17.141 20.9832C17.1338 21.2072 17.0671 21.4257 16.9469 21.6183C16.6822 22.058 16.1401 22.4733 15.2371 22.4733V22.4748Z" fill="white"/>
</svg>
